<?xml version="1.0" encoding="UTF-8" standalone="no"?>
<!-- Created with Inkscape (http://www.inkscape.org/) -->
<svg
   xmlns:dc="http://purl.org/dc/elements/1.1/"
   xmlns:cc="http://creativecommons.org/ns#"
   xmlns:rdf="http://www.w3.org/1999/02/22-rdf-syntax-ns#"
   xmlns:svg="http://www.w3.org/2000/svg"
   xmlns="http://www.w3.org/2000/svg"
   xmlns:sodipodi="http://sodipodi.sourceforge.net/DTD/sodipodi-0.dtd"
   xmlns:inkscape="http://www.inkscape.org/namespaces/inkscape"
   width="300"
   height="60"
   id="svg2937"
   sodipodi:version="0.32"
   inkscape:version="0.46"
   sodipodi:docname="Interkama_logo.svg"
   inkscape:output_extension="org.inkscape.output.svg.inkscape"
   version="1.0"
   inkscape:export-filename="E:\Work\_Images\logo\Interkama_logo.png"
   inkscape:export-xdpi="90"
   inkscape:export-ydpi="90">
  <defs
     id="defs2939">
    <inkscape:perspective
       sodipodi:type="inkscape:persp3d"
       inkscape:vp_x="0 : 526.18109 : 1"
       inkscape:vp_y="0 : 1000 : 0"
       inkscape:vp_z="744.09448 : 526.18109 : 1"
       inkscape:persp3d-origin="372.04724 : 350.78739 : 1"
       id="perspective2945" />
  </defs>
  <sodipodi:namedview
     id="base"
     pagecolor="#ffffff"
     bordercolor="#666666"
     borderopacity="1.0"
     gridtolerance="10000"
     guidetolerance="10"
     objecttolerance="10"
     inkscape:pageopacity="0.0"
     inkscape:pageshadow="2"
     inkscape:zoom="1.979899"
     inkscape:cx="270.31883"
     inkscape:cy="-49.79282"
     inkscape:document-units="px"
     inkscape:current-layer="layer1"
     showgrid="false"
     inkscape:window-width="1280"
     inkscape:window-height="977"
     inkscape:window-x="-4"
     inkscape:window-y="-4"
     inkscape:showpageshadow="false"
     borderlayer="true" />
  <metadata
     id="metadata2942">
    <rdf:RDF>
      <cc:Work
         rdf:about="">
        <dc:format>image/svg+xml</dc:format>
        <dc:type
           rdf:resource="http://purl.org/dc/dcmitype/StillImage" />
      </cc:Work>
    </rdf:RDF>
  </metadata>
  <g
     inkscape:label="Layer 1"
     inkscape:groupmode="layer"
     id="layer1">
    <g
       style="display:inline"
       transform="matrix(1.0862863,0,0,1.0862863,286.96034,171.17584)"
       id="g5562">
      <g
         id="g5509"
         transform="matrix(0.4818166,0,0,0.4818166,-269.41145,-151.77235)"
         inkscape:export-filename="E:\Work\_Images\logo.png"
         inkscape:export-xdpi="300"
         inkscape:export-ydpi="300"
         style="display:inline">
        <path
           style="fill:#000000;stroke:none;stroke-width:0.21602701;display:inline"
           d="M 23.181922,83.44705 L 10.886022,102.58545 L 15.647782,102.58545 L 17.810402,99.00385 L 24.755022,99.00385 L 25.025722,102.58545 L 29.810222,102.58545 L 27.747822,83.44705 L 23.181922,83.44705 z M 19.666502,95.75035 L 24.137822,88.45045 L 24.642422,95.75035 L 19.666502,95.75035 z M 100.27612,83.44705 L 95.148022,102.58545 L 99.659222,102.58545 L 101.42472,95.99645 L 105.71732,95.99645 C 108.04132,95.99645 113.14722,95.61375 114.75122,89.62595 C 116.01922,84.89615 113.07122,83.44705 109.18932,83.44705 L 100.27612,83.44705 z M 103.79102,87.16525 L 107.31802,87.16525 C 108.32962,87.16525 110.57322,87.05605 109.87722,89.65345 C 109.37942,91.51255 108.08072,92.27805 105.94802,92.27805 L 102.42102,92.27805 L 103.79102,87.16525 z M 127.23422,95.67745 C 126.69322,97.02195 125.31822,99.06465 122.52622,99.06465 C 119.63022,99.06465 118.73722,96.60825 119.65122,93.19545 C 121.27222,87.14505 124.68222,86.96385 125.63922,86.96385 C 126.62122,86.96385 128.99122,87.09315 128.56922,90.11835 L 132.75822,90.11835 C 133.34222,87.45525 132.78722,83.44735 126.37422,83.44735 C 124.64222,83.44735 117.56422,83.80935 115.00722,93.35045 C 113.10222,100.46095 116.77322,102.58565 121.40122,102.58565 C 127.81422,102.58565 130.46322,98.39245 131.47522,95.67745 L 127.23422,95.67745 z M 147.76922,87.16525 L 158.13122,87.16525 L 159.12822,83.44705 L 144.25422,83.44705 L 139.12622,102.58545 L 148.25822,102.58545 C 152.68722,102.58545 156.02922,100.72635 157.07622,96.81655 C 158.71722,90.69225 153.06722,90.55565 151.48122,90.55565 L 146.86122,90.55565 L 147.76922,87.16525 z M 145.86422,94.27385 L 149.61022,94.27385 C 150.70422,94.27385 152.85422,94.41065 152.23922,96.70725 C 151.75522,98.51175 150.07422,98.86725 148.29722,98.86725 L 144.63422,98.86725 L 145.86422,94.27385 z M 183.04222,94.35595 L 189.98722,94.35595 L 187.78222,102.58545 L 192.29322,102.58545 L 197.42122,83.44705 L 192.91022,83.44705 L 190.98322,90.63755 L 184.03922,90.63755 L 185.96522,83.44705 L 181.45422,83.44705 L 176.32622,102.58545 L 180.83722,102.58545 L 183.04222,94.35595 z M 38.938922,91.23915 L 41.026922,83.44705 L 36.515722,83.44705 L 31.387622,102.58545 L 35.898822,102.58545 L 37.525022,96.51595 L 40.271122,94.32855 L 43.800322,102.58545 L 49.432622,102.58545 L 44.179322,91.37585 L 53.986522,83.44705 L 48.354322,83.44705 L 38.938922,91.23915 z M 87.068822,83.44705 L 74.772922,102.58545 L 79.534722,102.58545 L 81.697322,99.00385 L 88.641922,99.00385 L 88.912622,102.58545 L 93.697222,102.58545 L 91.634722,83.44705 L 87.068822,83.44705 z M 83.553422,95.75035 L 88.024722,88.45045 L 88.529322,95.75035 L 83.553422,95.75035 z M 168.43022,83.44705 L 156.13422,102.58545 L 160.89622,102.58545 L 163.05822,99.00385 L 170.00322,99.00385 L 170.27422,102.58545 L 175.05822,102.58545 L 172.99622,83.44705 L 168.43022,83.44705 z M 164.91422,95.75035 L 169.38622,88.45045 L 169.89022,95.75035 L 164.91422,95.75035 z M 203.16922,91.23915 L 205.25722,83.44705 L 200.74622,83.44705 L 195.61822,102.58545 L 200.12922,102.58545 L 201.75622,96.51595 L 204.50222,94.32855 L 208.03122,102.58545 L 213.66322,102.58545 L 208.41022,91.37585 L 218.21722,83.44705 L 212.58522,83.44705 L 203.16922,91.23915 z M 66.194522,87.16525 L 76.556822,87.16525 L 77.553122,83.44705 L 62.679622,83.44705 L 57.551522,102.58545 L 66.683322,102.58545 C 71.112622,102.58545 74.454122,100.72635 75.501822,96.81655 C 77.142722,90.69225 71.492522,90.55565 69.906722,90.55565 L 65.286122,90.55565 L 66.194522,87.16525 z M 64.289822,94.27385 L 68.035422,94.27385 C 69.129222,94.27385 71.279722,94.41065 70.664422,96.70725 C 70.180822,98.51175 68.499922,98.86725 66.722722,98.86725 L 63.059022,98.86725 L 64.289822,94.27385 z"
           id="path5511" />
        <g
           id="g5513">
          <path
             style="fill:#00a94e;fill-opacity:1;fill-rule:nonzero;stroke:none;stroke-width:1;stroke-linecap:butt;stroke-linejoin:bevel;stroke-miterlimit:4;stroke-dasharray:none;stroke-dashoffset:0;stroke-opacity:1;display:inline"
             d="M 43.205232,38.82438 L 74.829492,7.1993797 L 85.767362,7.1993797 L 96.705232,7.1993797 L 96.705232,31.07438 L 96.705232,54.94938 L 114.45523,54.94938 L 132.20523,54.94938 L 132.20523,46.69938 L 132.20523,38.44938 L 115.05468,38.44938 L 97.904142,38.44938 L 105.49218,30.71131 L 113.08023,22.97324 L 130.39273,22.96131 L 147.70523,22.94938 L 147.70523,40.38871 L 147.70523,57.82805 L 141.39093,64.13871 L 135.07663,70.44938 L 108.14093,70.44938 L 81.205232,70.44938 L 81.205232,46.51261 L 81.205232,22.57583 L 65.079462,38.70011 L 48.953692,54.82438 L 64.763562,54.88877 L 80.573442,54.95315 L 72.828332,62.70127 L 65.083252,70.44938 L 38.332112,70.44938 L 11.580972,70.44938 L 43.205232,38.82438 z"
             id="path5515" />
          <path
             style="fill:#00a94e;fill-opacity:1;fill-rule:nonzero;stroke:none;stroke-width:5;stroke-linecap:butt;stroke-linejoin:bevel;stroke-miterlimit:4;stroke-dasharray:none;stroke-dashoffset:0;stroke-opacity:1;display:inline"
             d="M 151.45523,38.82438 L 151.45523,7.1993797 L 159.20523,7.1993797 L 166.95523,7.1993797 L 166.95523,31.07438 L 166.95523,54.94938 L 184.70523,54.94938 L 202.45523,54.94938 L 202.45523,46.69938 L 202.45523,38.44938 L 185.14423,38.44938 L 167.83325,38.44938 L 175.58023,30.69938 L 183.3272,22.94938 L 200.64123,22.94938 L 217.95523,22.94938 L 217.95523,40.38871 L 217.95523,57.82805 L 211.64093,64.13871 L 205.32663,70.44938 L 178.39093,70.44938 L 151.45523,70.44938 L 151.45523,38.82438 z"
             id="path5517" />
        </g>
      </g>
      <g
         transform="translate(209,-178)"
         id="g5519">
        <text
           xml:space="preserve"
           style="font-size:11px;font-style:italic;font-variant:normal;font-weight:bold;font-stretch:normal;text-align:start;line-height:125%;writing-mode:lr-tb;text-anchor:start;fill:#000000;fill-opacity:1;stroke:none;stroke-width:1px;stroke-linecap:butt;stroke-linejoin:miter;stroke-opacity:1;font-family:Verdana;-inkscape-font-specification:Verdana Bold Italic"
           x="-374.49234"
           y="73.245872"
           id="text5521"
           sodipodi:linespacing="125%"
           transform="scale(0.9741514,1.0265345)"><tspan
             sodipodi:role="line"
             id="tspan5523"
             x="-374.49234"
             y="73.245872"
             style="font-size:11px;font-style:italic;font-variant:normal;font-weight:bold;font-stretch:normal;text-align:start;line-height:125%;writing-mode:lr-tb;text-anchor:start;font-family:Verdana;-inkscape-font-specification:Verdana Bold Italic">НИЖНЕКАМСКИЙ ФИЛИАЛ</tspan></text>
        <text
           transform="scale(0.9824425,1.0178713)"
           sodipodi:linespacing="125%"
           id="text5525"
           y="31.620533"
           x="-370.72757"
           style="font-size:11px;font-style:italic;font-variant:normal;font-weight:bold;font-stretch:normal;text-align:start;line-height:125%;writing-mode:lr-tb;text-anchor:start;fill:#000000;fill-opacity:1;stroke:none;stroke-width:1px;stroke-linecap:butt;stroke-linejoin:miter;stroke-opacity:1;font-family:Verdana TAT;-inkscape-font-specification:Verdana TAT Bold Italic"
           xml:space="preserve"><tspan
             y="31.620533"
             x="-370.72757"
             id="tspan5527"
             sodipodi:role="line">ТЊБЂН   КАМА   ФИЛИАЛЫ</tspan></text>
        <g
           transform="translate(-5,-46.999156)"
           id="g5529">
          <path
             id="path5531"
             d="M -233.99611,107.36218 L -233.99611,84.362183 L -228.54156,84.362183 L -221.99611,101.36218 L -215.45066,84.362183 L -215.45066,84.362183 L -209.99611,84.362183 L -209.99611,107.36218 L -215.45066,107.36218 L -215.45066,98.362183 L -219.81429,107.36218 L -224.17793,107.36218 L -228.54156,97.362183 L -228.54156,107.36218 L -233.99611,107.36218 z"
             style="fill:#00a94e;fill-opacity:1;fill-rule:evenodd;stroke:none;stroke-width:1px;stroke-linecap:butt;stroke-linejoin:miter;stroke-opacity:1;display:inline" />
          <path
             style="fill:#00a94e;fill-opacity:1;fill-rule:nonzero;stroke:none;stroke-width:1px;stroke-linecap:butt;stroke-linejoin:miter;stroke-opacity:1;display:inline"
             d="M -360,107.36137 L -360,84.361373 L -354.28572,84.361373 L -354.28572,97.361373 L -349.71428,87.361373 L -349.71428,84.361373 L -344,84.361373 L -344,107.36137 L -349.71428,107.36137 L -349.71428,95.361373 L -354.28572,104.36137 L -354.28572,107.36137 L -360,107.36137 z"
             id="path5533" />
          <path
             style="fill:#00a94e;fill-opacity:1;fill-rule:evenodd;stroke:none;stroke-width:1px;stroke-linecap:butt;stroke-linejoin:miter;stroke-opacity:1;display:inline"
             d="M -342,107.36137 L -342,84.361373 L -336.28572,84.361373 L -336.28572,93.361373 L -331.71428,93.361373 L -331.71428,84.361373 L -326,84.361373 L -326,107.36137 L -331.71428,107.36137 L -331.71428,98.361373 L -336.28572,98.361373 L -336.28572,107.36137 L -342,107.36137 z"
             id="path5535" />
          <path
             style="fill:#00a94e;fill-opacity:1;fill-rule:evenodd;stroke:none;stroke-width:1px;stroke-linecap:butt;stroke-linejoin:miter;stroke-opacity:1;display:inline"
             d="M -318.66667,107.36137 L -318.66667,89.361373 L -324,89.361373 L -324,84.361373 L -308,84.361373 L -308,89.361373 L -313.33333,89.361373 L -313.33333,107.36137 L -318.66667,107.36137 z"
             id="path5537" />
          <path
             style="fill:#00a94e;fill-opacity:1;fill-rule:evenodd;stroke:none;stroke-width:1px;stroke-linecap:butt;stroke-linejoin:miter;stroke-opacity:1;display:inline"
             d="M -269.98853,107.36218 L -269.98853,84.362183 L -264.27424,84.362183 L -264.27424,93.362183 L -259.70282,84.362183 L -253.98853,84.362183 L -258.55996,95.362183 L -253.98853,107.36218 L -259.70282,107.36218 L -264.27424,98.362183 L -264.27424,107.36218 L -269.98853,107.36218 z"
             id="path5539" />
          <g
             id="g5541"
             transform="matrix(1.1423295,0,0,1,53.852649,115.00457)"
             style="fill:#00a94e;fill-opacity:1;display:inline">
            <path
               d="M -315,-10.642391 L -315,-27.642391 C -314.79401,-29.363851 -313.93331,-30.490721 -312,-30.642391 L -304,-30.642391 C -302.38354,-30.663861 -300.88255,-29.210761 -301,-27.642391 L -301,-16.642391 L -310,-16.642391 L -310,-12.642391 L -305,-12.642391 C -305.02349,-13.073891 -304.71922,-14.632251 -303,-14.642391 C -301.14764,-14.653321 -300.99011,-12.775771 -301,-12.642391 L -301,-10.642391 C -301.15168,-8.8046811 -302.18176,-7.8343811 -304,-7.6423911 L -312,-7.6423911 C -313.43094,-7.8420711 -314.78397,-8.1864511 -315,-10.642391 z M -310,-21.642391 L -310,-25.642391 L -306,-25.642391 C -305.21543,-25.621451 -305.02427,-25.189691 -305,-24.642391 L -305,-22.642391 C -305.13447,-22.152801 -305.45316,-21.807971 -306,-21.642391 L -310,-21.642391 z"
               style="fill:#00a94e;fill-opacity:1;fill-rule:evenodd;stroke:none;stroke-width:1px;stroke-linecap:butt;stroke-linejoin:miter;stroke-opacity:1"
               id="path5543" />
          </g>
          <g
             id="g5545"
             transform="matrix(1.1428571,0,0,1,51.440029,115.00457)"
             style="fill:#00a94e;fill-opacity:1;display:inline">
            <path
               d="M -297,-7.6423911 L -297,-30.642391 L -286,-30.642391 C -283.55938,-30.400611 -283.24932,-29.037491 -283,-27.642391 L -283,-19.642391 C -283.31226,-17.190491 -284.65161,-16.906911 -286,-16.642391 L -292,-16.642391 L -292,-7.6423911 L -297,-7.6423911 z M -292,-21.642391 L -292,-25.642391 L -288,-25.642391 C -287.37732,-25.598411 -287.03347,-25.275591 -287,-24.642391 L -287,-22.642391 C -287.21918,-21.928541 -287.60797,-21.780061 -288,-21.642391 L -292,-21.642391 z"
               style="fill:#00a94e;fill-opacity:1;fill-rule:evenodd;stroke:none;stroke-width:1px;stroke-linecap:butt;stroke-linejoin:miter;stroke-opacity:1"
               id="path5547" />
          </g>
          <g
             id="g5549"
             transform="matrix(1.2307692,0,0,1,69.242232,115.00457)"
             style="fill:#00a94e;fill-opacity:1;display:inline">
            <path
               sodipodi:nodetypes="ccccccccccccccccccc"
               d="M -261,-30.642391 L -251,-30.642391 C -248.9304,-30.456211 -248.1587,-29.282511 -248,-27.642391 L -248,-7.6423911 L -258,-7.6423911 C -259.45368,-7.8445411 -260.73973,-8.3414911 -261,-10.642391 L -261,-18.642391 C -260.80472,-20.245931 -260.02309,-21.409711 -258,-21.642391 L -252,-21.642391 L -252.0625,-25.642387 L -261,-25.642387 L -261,-30.642391 z M -252,-12.642391 L -252,-16.642391 L -256,-16.642391 C -256.84464,-16.578161 -256.92943,-16.114021 -257,-15.642391 L -257,-13.642391 C -256.90133,-13.199551 -256.71595,-12.797171 -256,-12.642391 L -252,-12.642391 z"
               style="fill:#00a94e;fill-opacity:1;fill-rule:evenodd;stroke:none;stroke-width:1px;stroke-linecap:butt;stroke-linejoin:miter;stroke-opacity:1"
               id="path5551" />
          </g>
          <g
             id="g5553"
             transform="matrix(1.2307692,0,0,1,60.306768,115.00376)"
             style="fill:#00a94e;fill-opacity:1;display:inline">
            <path
               sodipodi:nodetypes="ccccccccccccccccccc"
               d="M -217.99609,-30.642421 L -207.99609,-30.642421 C -205.92649,-30.456241 -205.15479,-29.282541 -204.99609,-27.642421 L -204.99609,-7.6424211 L -214.99609,-7.6424211 C -216.44977,-7.8445711 -217.73582,-8.3415211 -217.99609,-10.642421 L -217.99609,-18.642421 C -217.80081,-20.245961 -217.01918,-21.409741 -214.99609,-21.642421 L -209.05243,-21.641577 L -209.05243,-25.641577 L -217.98994,-25.641577 L -217.99609,-30.642421 z M -208.99609,-12.642421 L -208.99609,-16.642421 L -212.99609,-16.642421 C -213.84073,-16.578191 -213.92552,-16.114051 -213.99609,-15.642421 L -213.99609,-13.642421 C -213.89742,-13.199581 -213.71204,-12.797201 -212.99609,-12.642421 L -208.99609,-12.642421 z"
               style="fill:#00a94e;fill-opacity:1;fill-rule:evenodd;stroke:none;stroke-width:1px;stroke-linecap:butt;stroke-linejoin:miter;stroke-opacity:1"
               id="path5555" />
          </g>
        </g>
      </g>
    </g>
  </g>
</svg>
